# xmcd
#
# Track frame offsets: 
#        150
#        13843
#        25168
#        38559
#        50543
#        62272
#        82224
#        91145
#        104483
#        116440
#        129844
#        141547
#        152451
#
# Disc length: 2161 seconds
#
# Revision: 0
# Processed by: cddbd v1.5.2PL0 Copyright (c) Steve Scherf et al.
# Submitted via: ExactAudioCopy v0.99pb3
#
DISCID=a0086f0d
DTITLE=Stoney Creek - Finger Lickin' Pickin'
DYEAR=2002
DGENRE=Bluegrass
TTITLE0=Darlin' Corey
TTITLE1=I Want to be Loved
TTITLE2=Beaumont Rag
TTITLE3=Fool such as I
TTITLE4=How Could I Love Her
TTITLE5=Lonesome Ride
TTITLE6=Heaven Bound
TTITLE7=Pickin' Wild Cherries
TTITLE8=Dark as the Night
TTITLE9=Last Ride to Rosine
TTITLE10=Before I Met You
TTITLE11=Enough On My Mind
TTITLE12=Ghost Chicken
EXTD=
EXTT0=
EXTT1=
EXTT2=
EXTT3=
EXTT4=
EXTT5=
EXTT6=
EXTT7=
EXTT8=
EXTT9=
EXTT10=
EXTT11=
EXTT12=
PLAYORDER=
